Coordinates
version=1
nRows=10
nColumns=22
inDegrees=yes

Units are S.I. units (second, meters, Newtons, ...)
If the header above contains a line with 'inDegrees', this indicates whether rotational values are in degrees (yes) or radians (no).

endheader
time	pelvis_tilt	pelvis_list	pelvis_rotation	pelvis_tx	pelvis_ty	pelvis_tz	hip_flexion_r	hip_adduction_r	hip_rotation_r	knee_angle_r	ankle_angle_r	subtalar_angle_r	hip_flexion_l	hip_adduction_l	hip_rotation_l	knee_angle_l	ankle_angle_l	subtalar_angle_l	lumbar_extension	lumbar_bending	lumbar_rotation
      2.93000000	      4.01463357	     -1.28007152	     12.49516654	     -0.30729248	      0.89128121	      0.66015549	     23.52458245	     -0.70047917	      4.17810945	    -11.29967960	     -4.39182490	     10.88857635	    -12.02779616	      1.77505337	      3.28092807	    -25.00752499	     21.32535680	     -7.83638213	     -9.55785583	     -1.60165792	     -6.61059789
      2.94000000	      4.11611030	     -1.62714445	     12.73174285	     -0.29657868	      0.89032218	      0.65915523	     23.65982700	     -0.05135638	      5.16855422	    -12.94840553	     -4.56973004	     10.48117669	    -12.51313060	      1.22503161	      3.01375650	    -25.53354589	     20.98484379	     -7.83674172	     -9.55105314	     -1.32984740	     -6.47688367
      2.95000000	      4.19307060	     -2.01205275	     12.95258635	     -0.28562160	      0.88957673	      0.65824207	     23.77825463	      0.66094463	      5.96780549	    -14.50226557	     -4.83798190	     10.00854942	    -12.93397241	      0.62328826	      2.71554792	    -26.11713970	     20.45739024	     -7.78791507	     -9.47365389	     -1.03954509	     -6.34387530
      2.96000000	      4.24740600	     -2.42075789	     13.16228705	     -0.27445177	      0.88905277	      0.65735586	     23.90326566	      1.39734157	      6.50708751	    -15.99443574	     -5.18257332	      9.44504958	    -13.28157641	     -0.00920671	      2.41900707	    -26.77535224	     19.73767048	     -7.65853405	     -9.33373053	     -0.74058684	     -6.19884402
      2.97000000	      4.27362664	     -2.85277476	     13.38032703	     -0.26309620	      0.88876913	      0.65641588	     24.01013291	      2.12920443	      6.86807962	    -17.37075381	     -5.54987594	      9.03541678	    -13.51454525	     -0.67070622	      2.12834294	    -27.56035599	     18.74605403	     -7.55312576	     -9.12395830	     -0.42120715	     -6.10242162
      2.98000000	      4.28711236	     -3.28250646	     13.57662456	     -0.25160462	      0.88870786	      0.65540564	     24.13929840	      2.82296999	      6.93586349	    -18.74502735	     -5.92211736	      8.48191426	    -13.64687556	     -1.32220769	      1.84829015	    -28.48327766	     17.59640646	     -7.29764903	     -8.87716915	     -0.10938154	     -5.94739206
      2.99000000	      4.29683332	     -3.69182920	     13.78315151	     -0.23998703	      0.88892038	      0.65420647	     24.22925928	      3.43623194	      6.79942145	    -20.06222429	     -6.16396891	      8.04487234	    -13.67664680	     -1.94372138	      1.62571155	    -29.54916192	     16.15903360	     -7.00157267	     -8.60383315	      0.19582445	     -5.83275995
      3.00000000	      4.32568186	     -4.09677278	     13.98479894	     -0.22831656	      0.88940008	      0.65283295	     24.25265203	      3.99189045	      6.49836787	    -21.30952064	     -6.32398764	      7.77308841	    -13.58720578	     -2.55662881	      1.40342497	    -30.81791865	     14.51344761	     -6.71019146	     -8.33821402	      0.51952004	     -5.70429818
      3.01000000	      4.36942161	     -4.48141523	     14.19430947	     -0.21661528	      0.89013220	      0.65124613	     24.19290143	      4.46978412	      6.05565918	    -22.47367897	     -6.25671828	      7.54167984	    -13.37618980	     -3.13681005	      1.24510151	    -32.27185163	     12.61527521	     -6.30001774	     -8.07916193	      0.84613144	     -5.55869089
      3.02000000	      4.45118708	     -4.85637288	     14.41263878	     -0.20494665	      0.89112111	      0.64947215	     24.00721659	      4.89906885	      5.54263017	    -23.51091852	     -6.01179788	      7.37723792	    -13.04551485	     -3.70807332	      1.11798582	    -33.92759826	     10.47558774	     -5.83864995	     -7.85907364	      1.19443669	     -5.39683088
